# Made in Blockbench 5.0.4
mtllib item.mtl

o Bottom
v 0.5 1 -0.375
v 0.5 1 -0.5
v 0.5 0 -0.375
v 0.5 0 -0.5
v -0.5 1 -0.5
v -0.5 1 -0.375
v -0.5 0 -0.5
v -0.5 0 -0.375
vt 0 1
vt 0 0
vt 1 0
vt 1 1
vt 1 0.125
vt 1 0
vt 0 0
vt 0 0.125
vt 1 0
vt 0 0
vt 0 1
vt 1 1
vt 0 0
vt 0 0.125
vt 1 0.125
vt 1 0
vt 1 0
vt 0 0
vt 0 0.125
vt 1 0.125
vt 0 0.125
vt 1 0.125
vt 1 0
vt 0 0
vn 0 0 -1
vn 1 0 0
vn 0 0 1
vn -1 0 0
vn 0 1 0
vn 0 -1 0
usemtl m_e6018a7a-6204-dcc5-907c-5a2d0410ca17
f 4/4/1 7/3/1 5/2/1 2/1/1
usemtl m_1484100f-fc69-c67c-79f1-93eb64655d0a
f 3/8/2 4/7/2 2/6/2 1/5/2
usemtl m_39d0a2c6-5572-8c63-bceb-8aecded3d591
f 8/12/3 3/11/3 1/10/3 6/9/3
usemtl m_1484100f-fc69-c67c-79f1-93eb64655d0a
f 7/16/4 8/15/4 6/14/4 5/13/4
usemtl m_39d0a2c6-5572-8c63-bceb-8aecded3d591
f 6/20/5 1/19/5 2/18/5 5/17/5
f 7/24/6 4/23/6 3/22/6 8/21/6
o Inner
v 0.375 0.9375 0.25
v 0.375 0.9375 -0.375
v 0.375 0.0625 0.25
v 0.375 0.0625 -0.375
v -0.375 0.9375 -0.375
v -0.375 0.9375 0.25
v -0.375 0.0625 -0.375
v -0.375 0.0625 0.25
vt 0 1
vt 0.75 1
vt 0.75 0.125
vt 0 0.125
vt 0.125 0.9375
vt 0.875 0.9375
vt 0.875 0.0625
vt 0.125 0.0625
vt 0.875 0.125
vt 0.125 0.125
vt 0.125 0.75
vt 0.875 0.75
vt 0.125 0.75
vt 0.875 0.75
vt 0.875 0.125
vt 0.125 0.125
vn 0 0 -1
vn 0 0 1
vn 0 1 0
vn 0 -1 0
usemtl m_b7fd43a7-145a-73a4-bf56-abcdee0e2ba2
f 12/28/7 15/27/7 13/26/7 10/25/7
usemtl m_df261bec-56d3-61ef-65f9-0e0466392d9b
f 16/32/8 11/31/8 9/30/8 14/29/8
usemtl m_b7fd43a7-145a-73a4-bf56-abcdee0e2ba2
f 14/36/9 9/35/9 10/34/9 13/33/9
f 15/40/10 12/39/10 11/38/10 16/37/10
o Side
v 0.5 1 0.25
v 0.5 1 -0.375
v 0.5 0 0.25
v 0.5 0 -0.375
v 0.375 1 -0.375
v 0.375 1 0.25
v 0.375 0 -0.375
v 0.375 0 0.25
vt 1 0.75
vt 1 0.125
vt 0 0.125
vt 0 0.75
vt 1 1
vt 1 0.875
vt 0 0.875
vt 0 1
vt 0 0.375
vt 0 1
vt 1 1
vt 1 0.375
vt 0.875 0.375
vt 1 0.375
vt 1 1
vt 0.875 1
vt 0.875 1
vt 1 1
vt 1 0.375
vt 0.875 0.375
vn 1 0 0
vn 0 0 1
vn -1 0 0
vn 0 1 0
vn 0 -1 0
usemtl m_75aa4965-6159-4835-3e9b-3fe51ed6a2e1
f 19/44/11 20/43/11 18/42/11 17/41/11
usemtl m_1484100f-fc69-c67c-79f1-93eb64655d0a
f 24/48/12 19/47/12 17/46/12 22/45/12
usemtl m_39d0a2c6-5572-8c63-bceb-8aecded3d591
f 23/52/13 24/51/13 22/50/13 21/49/13
f 22/56/14 17/55/14 18/54/14 21/53/14
f 23/60/15 20/59/15 19/58/15 24/57/15
o Side2
v -0.375 1 0.25
v -0.375 1 -0.375
v -0.375 0 0.25
v -0.375 0 -0.375
v -0.5 1 -0.375
v -0.5 1 0.25
v -0.5 0 -0.375
v -0.5 0 0.25
vt 1 1
vt 1 0.375
vt 0 0.375
vt 0 1
vt 0 0.875
vt 0 1
vt 1 1
vt 1 0.875
vt 0 0.125
vt 0 0.75
vt 1 0.75
vt 1 0.125
vt 1 0.375
vt 0.875 0.375
vt 0.875 1
vt 1 1
vt 1 1
vt 0.875 1
vt 0.875 0.375
vt 1 0.375
vn 1 0 0
vn 0 0 1
vn -1 0 0
vn 0 1 0
vn 0 -1 0
usemtl m_39d0a2c6-5572-8c63-bceb-8aecded3d591
f 27/64/16 28/63/16 26/62/16 25/61/16
usemtl m_1484100f-fc69-c67c-79f1-93eb64655d0a
f 32/68/17 27/67/17 25/66/17 30/65/17
usemtl m_75aa4965-6159-4835-3e9b-3fe51ed6a2e1
f 31/72/18 32/71/18 30/70/18 29/69/18
usemtl m_39d0a2c6-5572-8c63-bceb-8aecded3d591
f 30/76/19 25/75/19 26/74/19 29/73/19
f 31/80/20 28/79/20 27/78/20 32/77/20
o Pole1Core
v 0.125 0.625 0.25
v 0.125 0.625 -0.25
v 0.125 0.375 0.25
v 0.125 0.375 -0.25
v -0.125 0.625 -0.25
v -0.125 0.625 0.25
v -0.125 0.375 -0.25
v -0.125 0.375 0.25
vt 0.0625 0.125
vt 0.0625 0.625
vt 0.3125 0.625
vt 0.3125 0.125
vt 0.3125 0.625
vt 0.3125 0.125
vt 0.0625 0.125
vt 0.0625 0.625
vt 0.0625 0.625
vt 0.3125 0.625
vt 0.3125 0.125
vt 0.0625 0.125
vt 0.625 0.125
vt 0.375 0.125
vt 0.375 0.625
vt 0.625 0.625
vn 1 0 0
vn -1 0 0
vn 0 1 0
vn 0 -1 0
usemtl m_704e3dac-8f8b-f092-6b2e-af93bb424410
f 35/84/21 36/83/21 34/82/21 33/81/21
f 39/88/22 40/87/22 38/86/22 37/85/22
f 38/92/23 33/91/23 34/90/23 37/89/23
f 39/96/24 36/95/24 35/94/24 40/93/24
o Pole2Core
v 0.125 0.625 -0.25
v 0.125 0.625 -1.0625
v 0.125 0.375 -0.25
v 0.125 0.375 -1.0625
v -0.125 0.625 -1.0625
v -0.125 0.625 -0.25
v -0.125 0.375 -1.0625
v -0.125 0.375 -0.25
vt 0.9375 0.625
vt 0.9375 0.375
vt 0.6875 0.375
vt 0.6875 0.625
vt 0.0625 0.1875
vt 0.0625 1
vt 0.3125 1
vt 0.3125 0.1875
vt 0.3125 1
vt 0.3125 0.1875
vt 0.0625 0.1875
vt 0.0625 1
vt 0.0625 1
vt 0.3125 1
vt 0.3125 0.1875
vt 0.0625 0.1875
vt 0.3125 0.1875
vt 0.0625 0.1875
vt 0.0625 1
vt 0.3125 1
vn 0 0 -1
vn 1 0 0
vn -1 0 0
vn 0 1 0
vn 0 -1 0
usemtl m_704e3dac-8f8b-f092-6b2e-af93bb424410
f 44/100/25 47/99/25 45/98/25 42/97/25
f 43/104/26 44/103/26 42/102/26 41/101/26
f 47/108/27 48/107/27 46/106/27 45/105/27
f 46/112/28 41/111/28 42/110/28 45/109/28
f 47/116/29 44/115/29 43/114/29 48/113/29
o Cap
v 0.1875 0.6875 0.375
v 0.1875 0.6875 0.25
v 0.1875 0.3125 0.375
v 0.1875 0.3125 0.25
v -0.1875 0.6875 0.25
v -0.1875 0.6875 0.375
v -0.1875 0.3125 0.25
v -0.1875 0.3125 0.375
vt 0.625 0.625
vt 1 0.625
vt 1 0.25
vt 0.625 0.25
vt 0 0
vt 0 0.125
vt 0.375 0.125
vt 0.375 0
vt 0.625 0.625
vt 1 0.625
vt 1 0.25
vt 0.625 0.25
vt 0 0
vt 0 0.125
vt 0.375 0.125
vt 0.375 0
vt 0 0.125
vt 0.375 0.125
vt 0.375 0
vt 0 0
vt 0.375 0
vt 0 0
vt 0 0.125
vt 0.375 0.125
vn 0 0 -1
vn 1 0 0
vn 0 0 1
vn -1 0 0
vn 0 1 0
vn 0 -1 0
usemtl m_704e3dac-8f8b-f092-6b2e-af93bb424410
f 52/120/30 55/119/30 53/118/30 50/117/30
f 51/124/31 52/123/31 50/122/31 49/121/31
f 56/128/32 51/127/32 49/126/32 54/125/32
f 55/132/33 56/131/33 54/130/33 53/129/33
f 54/136/34 49/135/34 50/134/34 53/133/34
f 55/140/35 52/139/35 51/138/35 56/137/35
o cube
v -0.125 0.625 0.8125
v -0.125 0.625 0.5625
v -0.125 0.3125 0.8125
v -0.125 0.3125 0.5625
v -0.25 0.625 0.5625
v -0.25 0.625 0.8125
v -0.25 0.3125 0.5625
v -0.25 0.3125 0.8125
vt 0 0.5
vt 0.125 0.5
vt 0.125 0.1875
vt 0 0.1875
vt 0 1
vt 0.25 1
vt 0.25 0.6875
vt 0 0.6875
vt 0 0.9375
vt 0.125 0.9375
vt 0.125 0.625
vt 0 0.625
vt 0 0.5
vt 0.25 0.5
vt 0.25 0.1875
vt 0 0.1875
vt 0 1
vt 0.125 1
vt 0.125 0.75
vt 0 0.75
vt 0 0.75
vt 0.125 0.75
vt 0.125 0.5
vt 0 0.5
vn 0 0 -1
vn 1 0 0
vn 0 0 1
vn -1 0 0
vn 0 1 0
vn 0 -1 0
usemtl m_ce96772c-48fa-bc9f-441c-78db6a436b1b
f 60/144/36 63/143/36 61/142/36 58/141/36
f 59/148/37 60/147/37 58/146/37 57/145/37
f 64/152/38 59/151/38 57/150/38 62/149/38
f 63/156/39 64/155/39 62/154/39 61/153/39
f 62/160/40 57/159/40 58/158/40 61/157/40
f 63/164/41 60/163/41 59/162/41 64/161/41
o cube
v 0 0.625 0.8125
v 0 0.625 0.5625
v 0 0.3125 0.8125
v 0 0.3125 0.5625
v -0.125 0.625 0.5625
v -0.125 0.625 0.8125
v -0.125 0.3125 0.5625
v -0.125 0.3125 0.8125
vt 0 0.5
vt 0.125 0.5
vt 0.125 0.1875
vt 0 0.1875
vt 0.25 0.5
vt 0 0.5
vt 0 0.1875
vt 0.25 0.1875
vt 0 0.9375
vt 0.125 0.9375
vt 0.125 0.625
vt 0 0.625
vt 0 0.5
vt 0.25 0.5
vt 0.25 0.1875
vt 0 0.1875
vt 0 1
vt 0.125 1
vt 0.125 0.75
vt 0 0.75
vt 0 0.75
vt 0.125 0.75
vt 0.125 0.5
vt 0 0.5
vn 0 0 -1
vn 1 0 0
vn 0 0 1
vn -1 0 0
vn 0 1 0
vn 0 -1 0
usemtl m_ce96772c-48fa-bc9f-441c-78db6a436b1b
f 68/168/42 71/167/42 69/166/42 66/165/42
f 67/172/43 68/171/43 66/170/43 65/169/43
f 72/176/44 67/175/44 65/174/44 70/173/44
f 71/180/45 72/179/45 70/178/45 69/177/45
f 70/184/46 65/183/46 66/182/46 69/181/46
f 71/188/47 68/187/47 67/186/47 72/185/47
o cube
v 0.125 0.5625 0.625
v 0.125 0.5625 0.375
v 0.125 0.375 0.625
v 0.125 0.375 0.375
v -0.125 0.5625 0.375
v -0.125 0.5625 0.625
v -0.125 0.375 0.375
v -0.125 0.375 0.625
vt 0 1
vt 0.25 1
vt 0.25 0.8125
vt 0 0.8125
vt 0 1
vt 0.25 1
vt 0.25 0.8125
vt 0 0.8125
vt 0 1
vt 0.25 1
vt 0.25 0.8125
vt 0 0.8125
vt 0 1
vt 0.25 1
vt 0.25 0.8125
vt 0 0.8125
vt 0.25 1
vt 0.25 0.75
vt 0 0.75
vt 0 1
vt 0 0.75
vt 0 1
vt 0.25 1
vt 0.25 0.75
vn 0 0 -1
vn 1 0 0
vn 0 0 1
vn -1 0 0
vn 0 1 0
vn 0 -1 0
usemtl m_c6ce84d6-f80f-f551-1d00-ab6c464e90e3
f 76/192/48 79/191/48 77/190/48 74/189/48
f 75/196/49 76/195/49 74/194/49 73/193/49
f 80/200/50 75/199/50 73/198/50 78/197/50
f 79/204/51 80/203/51 78/202/51 77/201/51
f 78/208/52 73/207/52 74/206/52 77/205/52
f 79/212/53 76/211/53 75/210/53 80/209/53
o cube
v 0.125 0.625 1.0625
v 0.125 0.625 0.6875
v 0.125 0.5 1.0625
v 0.125 0.5 0.6875
v 0 0.625 0.6875
v 0 0.625 1.0625
v 0 0.5 0.6875
v 0 0.5 1.0625
vt 0 1
vt 0.125 1
vt 0.125 0.875
vt 0 0.875
vt 0.25 0.8125
vt 0.25 0.4375
vt 0.125 0.4375
vt 0.125 0.8125
vt 0 0.9375
vt 0.125 0.9375
vt 0.125 0.8125
vt 0 0.8125
vt 0.25 0.5
vt 0.25 0.875
vt 0.375 0.875
vt 0.375 0.5
vt 0 1
vt 0.125 1
vt 0.125 0.625
vt 0 0.625
vt 0 0.8125
vt 0.125 0.8125
vt 0.125 0.4375
vt 0 0.4375
vn 0 0 -1
vn 1 0 0
vn 0 0 1
vn -1 0 0
vn 0 1 0
vn 0 -1 0
usemtl m_ce96772c-48fa-bc9f-441c-78db6a436b1b
f 84/216/54 87/215/54 85/214/54 82/213/54
f 83/220/55 84/219/55 82/218/55 81/217/55
f 88/224/56 83/223/56 81/222/56 86/221/56
f 87/228/57 88/227/57 86/226/57 85/225/57
f 86/232/58 81/231/58 82/230/58 85/229/58
f 87/236/59 84/235/59 83/234/59 88/233/59
o cube
v 0.25 0.625 0.6875
v 0.25 0.625 0.5625
v 0.25 0.4375 0.6875
v 0.25 0.4375 0.5625
v 0 0.625 0.5625
v 0 0.625 0.6875
v 0 0.4375 0.5625
v 0 0.4375 0.6875
vt 0 1
vt 0.25 1
vt 0.25 0.8125
vt 0 0.8125
vt 0.125 0.75
vt 0 0.75
vt 0 0.9375
vt 0.125 0.9375
vt 0.1875 0.5
vt 0.1875 0.25
vt 0 0.25
vt 0 0.5
vt 0 1
vt 0.125 1
vt 0.125 0.8125
vt 0 0.8125
vt 0 1
vt 0 0.75
vt 0.125 0.75
vt 0.125 1
vt 0.125 0.875
vt 0.125 0.625
vt 0 0.625
vt 0 0.875
vn 0 0 -1
vn 1 0 0
vn 0 0 1
vn -1 0 0
vn 0 1 0
vn 0 -1 0
usemtl m_ce96772c-48fa-bc9f-441c-78db6a436b1b
f 92/240/60 95/239/60 93/238/60 90/237/60
f 91/244/61 92/243/61 90/242/61 89/241/61
f 96/248/62 91/247/62 89/246/62 94/245/62
f 95/252/63 96/251/63 94/250/63 93/249/63
f 94/256/64 89/255/64 90/254/64 93/253/64
f 95/260/65 92/259/65 91/258/65 96/257/65
o cube
v 0.1875 0.625 0.5625
v 0.1875 0.625 0.4375
v 0.1875 0.4375 0.5625
v 0.1875 0.4375 0.4375
v -0.1875 0.625 0.4375
v -0.1875 0.625 0.5625
v -0.1875 0.4375 0.4375
v -0.1875 0.4375 0.5625
vt 0.1875 0.875
vt 0.1875 0.5
vt 0 0.5
vt 0 0.875
vt 0.0625 0.75
vt 0.1875 0.75
vt 0.1875 0.5625
vt 0.0625 0.5625
vt 0 1
vt 0.375 1
vt 0.375 0.8125
vt 0 0.8125
vt 0.0625 0.75
vt 0.1875 0.75
vt 0.1875 0.5625
vt 0.0625 0.5625
vt 0.1875 0.875
vt 0.1875 0.5
vt 0.0625 0.5
vt 0.0625 0.875
vt 0.0625 0.5
vt 0.0625 0.875
vt 0.1875 0.875
vt 0.1875 0.5
vn 0 0 -1
vn 1 0 0
vn 0 0 1
vn -1 0 0
vn 0 1 0
vn 0 -1 0
usemtl m_ce96772c-48fa-bc9f-441c-78db6a436b1b
f 100/264/66 103/263/66 101/262/66 98/261/66
f 99/268/67 100/267/67 98/266/67 97/265/67
f 104/272/68 99/271/68 97/270/68 102/269/68
f 103/276/69 104/275/69 102/274/69 101/273/69
f 102/280/70 97/279/70 98/278/70 101/277/70
f 103/284/71 100/283/71 99/282/71 104/281/71
o Axis
v 0.125 1 0.125
v 0.125 1 -0.125
v 0.125 0 0.125
v 0.125 0 -0.125
v -0.125 1 -0.125
v -0.125 1 0.125
v -0.125 0 -0.125
v -0.125 0 0.125
vt 0.375 1
vt 0.625 1
vt 0.625 0
vt 0.375 0
vt 0.375 1
vt 0.625 1
vt 0.625 0
vt 0.375 0
vt 0.375 1
vt 0.625 1
vt 0.625 0
vt 0.375 0
vt 0.375 1
vt 0.625 1
vt 0.625 0
vt 0.375 0
vt 0.375 0.625
vt 0.625 0.625
vt 0.625 0.375
vt 0.375 0.375
vt 0.375 0.625
vt 0.625 0.625
vt 0.625 0.375
vt 0.375 0.375
vn 0 0 -1
vn 1 0 0
vn 0 0 1
vn -1 0 0
vn 0 1 0
vn 0 -1 0
usemtl m_98a259e0-b224-1277-7bf6-c63e6daa1d8e
f 108/288/72 111/287/72 109/286/72 106/285/72
f 107/292/73 108/291/73 106/290/73 105/289/73
f 112/296/74 107/295/74 105/294/74 110/293/74
f 111/300/75 112/299/75 110/298/75 109/297/75
usemtl m_d9f6480b-461c-058b-434f-28953d568252
f 110/304/76 105/303/76 106/302/76 109/301/76
f 111/308/77 108/307/77 107/306/77 112/305/77