# Made in Blockbench 5.0.4
mtllib pole.mtl

o Pole1Core
v 0.12531250000000005 0.6253125 0.25
v 0.12531250000000005 0.6253125 -0.25
v 0.12531250000000005 0.37468749999999995 0.25
v 0.12531250000000005 0.37468749999999995 -0.25
v -0.12531250000000005 0.6253125 -0.25
v -0.12531250000000005 0.6253125 0.25
v -0.12531250000000005 0.37468749999999995 -0.25
v -0.12531250000000005 0.37468749999999995 0.25
vt 0.0625 0.125
vt 0.0625 0.625
vt 0.3125 0.625
vt 0.3125 0.125
vt 0.3125 0.625
vt 0.3125 0.125
vt 0.0625 0.125
vt 0.0625 0.625
vt 0.0625 0.625
vt 0.3125 0.625
vt 0.3125 0.125
vt 0.0625 0.125
vt 0.625 0.125
vt 0.375 0.125
vt 0.375 0.625
vt 0.625 0.625
vn 1 0 0
vn -1 0 0
vn 0 1 0
vn 0 -1 0
usemtl m_ad9deefd-96ad-51a0-37b2-fa6b00ad88e1
f 3/4/1 4/3/1 2/2/1 1/1/1
f 7/8/2 8/7/2 6/6/2 5/5/2
f 6/12/3 1/11/3 2/10/3 5/9/3
f 7/16/4 4/15/4 3/14/4 8/13/4
o Pole2Core
v 0.12531250000000005 0.6253125 -0.25
v 0.12531250000000005 0.6253125 -1.0625
v 0.12531250000000005 0.37468749999999995 -0.25
v 0.12531250000000005 0.37468749999999995 -1.0625
v -0.12531250000000005 0.6253125 -1.0625
v -0.12531250000000005 0.6253125 -0.25
v -0.12531250000000005 0.37468749999999995 -1.0625
v -0.12531250000000005 0.37468749999999995 -0.25
vt 0.9375 0.625
vt 0.9375 0.375
vt 0.6875 0.375
vt 0.6875 0.625
vt 0.0625 0.1875
vt 0.0625 1
vt 0.3125 1
vt 0.3125 0.1875
vt 0.3125 1
vt 0.3125 0.1875
vt 0.0625 0.1875
vt 0.0625 1
vt 0.0625 1
vt 0.3125 1
vt 0.3125 0.1875
vt 0.0625 0.1875
vt 0.3125 0.1875
vt 0.0625 0.1875
vt 0.0625 1
vt 0.3125 1
vn 0 0 -1
vn 1 0 0
vn -1 0 0
vn 0 1 0
vn 0 -1 0
usemtl m_ad9deefd-96ad-51a0-37b2-fa6b00ad88e1
f 12/20/5 15/19/5 13/18/5 10/17/5
f 11/24/6 12/23/6 10/22/6 9/21/6
f 15/28/7 16/27/7 14/26/7 13/25/7
f 14/32/8 9/31/8 10/30/8 13/29/8
f 15/36/9 12/35/9 11/34/9 16/33/9