# Made in Blockbench 5.0.4
mtllib vertical.mtl

o Bottom
v 0.5 1 -0.375
v 0.5 1 -0.5
v 0.5 0 -0.375
v 0.5 0 -0.5
v -0.5 1 -0.5
v -0.5 1 -0.375
v -0.5 0 -0.5
v -0.5 0 -0.375
vt 0 1
vt 0 0
vt 1 0
vt 1 1
vt 1 0.125
vt 1 0
vt 0 0
vt 0 0.125
vt 1 0
vt 0 0
vt 0 1
vt 1 1
vt 0 0
vt 0 0.125
vt 1 0.125
vt 1 0
vt 1 0
vt 0 0
vt 0 0.125
vt 1 0.125
vt 0 0.125
vt 1 0.125
vt 1 0
vt 0 0
vn 0 0 -1
vn 1 0 0
vn 0 0 1
vn -1 0 0
vn 0 1 0
vn 0 -1 0
usemtl m_f8668af9-5cd4-17d4-58db-ee240eaaf8a5
f 4/4/1 7/3/1 5/2/1 2/1/1
usemtl m_a7195a10-2bfe-86fa-25f1-24096ae4ab52
f 3/8/2 4/7/2 2/6/2 1/5/2
usemtl m_656167a3-d6ec-47bd-430c-48b0af87d561
f 8/12/3 3/11/3 1/10/3 6/9/3
usemtl m_a7195a10-2bfe-86fa-25f1-24096ae4ab52
f 7/16/4 8/15/4 6/14/4 5/13/4
f 6/20/5 1/19/5 2/18/5 5/17/5
f 7/24/6 4/23/6 3/22/6 8/21/6
o Inner
v 0.375 0.940625 0.25
v 0.375 0.940625 -0.375
v 0.375 0.059374999999999956 0.25
v 0.375 0.059374999999999956 -0.375
v -0.375 0.940625 -0.375
v -0.375 0.940625 0.25
v -0.375 0.059374999999999956 -0.375
v -0.375 0.059374999999999956 0.25
vt 0 1
vt 0.75 1
vt 0.75 0.125
vt 0 0.125
vt 0.125 0.9375
vt 0.875 0.9375
vt 0.875 0.0625
vt 0.125 0.0625
vt 0.875 0.875
vt 0.125 0.875
vt 0.125 0.25
vt 0.875 0.25
vt 0.125 0.25
vt 0.875 0.25
vt 0.875 0.875
vt 0.125 0.875
vn 0 0 -1
vn 0 0 1
vn 0 1 0
vn 0 -1 0
usemtl m_f481fe69-1be2-9a82-7002-f0184e3ce3ae
f 12/28/7 15/27/7 13/26/7 10/25/7
usemtl m_ad2cb1d6-3985-a040-949d-326247ab35e1
f 16/32/8 11/31/8 9/30/8 14/29/8
usemtl m_f481fe69-1be2-9a82-7002-f0184e3ce3ae
f 14/36/9 9/35/9 10/34/9 13/33/9
f 15/40/10 12/39/10 11/38/10 16/37/10
o Side
v 0.5 1 0.25
v 0.5 1 -0.375
v 0.5 0 0.25
v 0.5 0 -0.375
v 0.375 1 -0.375
v 0.375 1 0.25
v 0.375 0 -0.375
v 0.375 0 0.25
vt 1 0.75
vt 1 0.125
vt 0 0.125
vt 0 0.75
vt 1 1
vt 1 0.875
vt 0 0.875
vt 0 1
vt 0 0.375
vt 0 1
vt 1 1
vt 1 0.375
vt 0.125 0.125
vt 0 0.125
vt 0 0.75
vt 0.125 0.75
vt 0.875 0.75
vt 1 0.75
vt 1 0.125
vt 0.875 0.125
vn 1 0 0
vn 0 0 1
vn -1 0 0
vn 0 1 0
vn 0 -1 0
usemtl m_01607677-5f0d-59d1-0b3c-55a744454ca3
f 19/44/11 20/43/11 18/42/11 17/41/11
usemtl m_a7195a10-2bfe-86fa-25f1-24096ae4ab52
f 24/48/12 19/47/12 17/46/12 22/45/12
usemtl m_656167a3-d6ec-47bd-430c-48b0af87d561
f 23/52/13 24/51/13 22/50/13 21/49/13
usemtl m_a7195a10-2bfe-86fa-25f1-24096ae4ab52
f 22/56/14 17/55/14 18/54/14 21/53/14
f 23/60/15 20/59/15 19/58/15 24/57/15
o Side2
v -0.375 1 0.25
v -0.375 1 -0.375
v -0.375 0 0.25
v -0.375 0 -0.375
v -0.5 1 -0.375
v -0.5 1 0.25
v -0.5 0 -0.375
v -0.5 0 0.25
vt 1 1
vt 1 0.375
vt 0 0.375
vt 0 1
vt 0 0.875
vt 0 1
vt 1 1
vt 1 0.875
vt 0 0.125
vt 0 0.75
vt 1 0.75
vt 1 0.125
vt 1 0.125
vt 0.875 0.125
vt 0.875 0.75
vt 1 0.75
vt 0 0.75
vt 0.125 0.75
vt 0.125 0.125
vt 0 0.125
vn 1 0 0
vn 0 0 1
vn -1 0 0
vn 0 1 0
vn 0 -1 0
usemtl m_656167a3-d6ec-47bd-430c-48b0af87d561
f 27/64/16 28/63/16 26/62/16 25/61/16
usemtl m_a7195a10-2bfe-86fa-25f1-24096ae4ab52
f 32/68/17 27/67/17 25/66/17 30/65/17
usemtl m_01607677-5f0d-59d1-0b3c-55a744454ca3
f 31/72/18 32/71/18 30/70/18 29/69/18
usemtl m_a7195a10-2bfe-86fa-25f1-24096ae4ab52
f 30/76/19 25/75/19 26/74/19 29/73/19
f 31/80/20 28/79/20 27/78/20 32/77/20